<svg width="499" height="213" viewBox="0 0 499 213" fill="none" xmlns="http://www.w3.org/2000/svg">
<path fill-rule="evenodd" clip-rule="evenodd" d="M433.507 77.5518C445.614 77.5518 456.594 80.4805 466.338 86.4033C476.146 92.2464 483.918 99.9982 489.592 109.631L490.139 110.526C495.702 119.814 498.483 130.016 498.483 141.048C498.483 153.116 495.773 164.581 490.365 175.396C485.106 186.31 477.219 195.224 466.791 202.106C466.775 202.117 466.759 202.127 466.743 202.137C456.083 208.959 442.951 212.239 427.587 212.239C415.89 212.239 405.226 209.516 395.69 204.007C386.217 198.533 378.623 191.042 372.949 181.586C372.931 181.556 372.914 181.526 372.897 181.496C367.395 171.761 364.684 160.81 364.684 148.744C364.684 139.934 366.364 131.34 369.705 122.986L369.738 122.907C373.273 114.59 378.157 107.008 384.371 100.173C390.629 93.2891 397.944 87.8498 406.295 83.877C414.75 79.6555 423.84 77.5518 433.507 77.5518ZM428.476 94.7275C423.597 94.7275 419.285 95.5393 415.485 97.0938C415.455 97.106 415.426 97.1184 415.396 97.1299C412.107 98.3826 408.812 100.9 405.577 105.033C405.568 105.044 405.56 105.055 405.551 105.066C402.088 109.395 399.764 114.756 398.677 121.281C397.528 128.171 396.955 135.055 396.955 141.936C396.955 151.091 398.632 159.852 401.985 168.245C405.342 176.45 409.854 183.032 415.469 188.104C420.887 192.997 426.948 195.359 433.804 195.359C439.993 195.359 445.406 194.179 450.124 191.907C454.6 189.752 458.139 186.267 460.738 181.242L460.745 181.229C462.837 177.219 464.31 172.185 465.057 166.022C465.829 159.648 466.211 153.692 466.211 148.151C466.211 139.194 464.534 130.632 461.181 122.435C461.167 122.401 461.154 122.367 461.142 122.333C457.988 113.987 453.503 107.36 447.745 102.322C447.712 102.293 447.679 102.263 447.646 102.232C442.281 97.2131 435.961 94.7276 428.476 94.7275Z" fill="black" style="fill:black;fill-opacity:1;"/>
<path fill-rule="evenodd" clip-rule="evenodd" d="M358.558 204.082C358.607 204.082 358.649 204.092 358.683 204.113C358.716 204.135 358.74 204.164 358.757 204.198C358.774 204.233 358.783 204.27 358.783 204.309C358.783 204.345 358.773 204.377 358.755 204.407C358.737 204.438 358.713 204.463 358.682 204.481C358.651 204.5 358.616 204.51 358.577 204.51C358.547 204.51 358.518 204.503 358.491 204.489C358.465 204.477 358.441 204.459 358.421 204.438C358.401 204.416 358.385 204.391 358.374 204.364C358.363 204.338 358.358 204.31 358.358 204.282C358.358 204.244 358.367 204.209 358.384 204.179C358.402 204.149 358.426 204.125 358.456 204.107C358.486 204.09 358.52 204.082 358.558 204.082ZM358.578 204.111C358.552 204.111 358.527 204.121 358.507 204.14C358.486 204.158 358.47 204.183 358.458 204.212C358.446 204.242 358.44 204.273 358.44 204.306C358.44 204.33 358.442 204.354 358.446 204.378C358.45 204.402 358.459 204.422 358.473 204.438C358.485 204.454 358.498 204.464 358.512 204.47C358.526 204.476 358.543 204.479 358.561 204.479C358.589 204.478 358.613 204.468 358.634 204.449C358.655 204.431 358.672 204.407 358.684 204.377C358.696 204.348 358.701 204.317 358.701 204.285C358.701 204.266 358.7 204.245 358.697 204.223C358.695 204.201 358.69 204.182 358.682 204.167C358.672 204.148 358.657 204.134 358.64 204.125C358.622 204.116 358.601 204.111 358.578 204.111Z" fill="black" style="fill:black;fill-opacity:1;"/>
<path d="M205.549 0.0146484C206.513 0.0810559 207.412 0.363654 208.122 0.636719C208.966 0.961313 209.87 1.40458 210.812 1.92383C212.693 2.86417 214.394 3.71503 215.915 4.47559C217.621 5.14191 220.782 6.05624 225.593 7.21094C230.439 8.32748 235.161 8.87988 239.764 8.87988H311.91C317.624 8.68351 323.243 8.58508 328.767 8.58398C334.275 8.38725 339.784 8.19089 345.293 7.99414L345.436 7.99121C348.492 7.99121 350.405 10.1168 351.469 11.9053C352.63 13.5952 354.111 16.7609 351.892 19.7197L351.887 19.7256L333.831 43.7021C323.578 57.5039 314.312 70.0235 306.032 81.2607C297.76 92.487 289.884 103.415 282.403 114.046C282.397 114.055 282.39 114.065 282.383 114.074C274.909 124.498 267.235 135.515 259.362 147.127C251.678 158.554 243.204 171.366 233.938 185.562C233.907 185.609 233.874 185.653 233.842 185.698C233.834 185.718 233.819 185.759 233.803 185.826C233.753 186.024 233.699 186.376 233.699 186.928C233.699 187.366 233.792 187.712 233.966 188.032C238.107 188.403 242.872 188.776 248.265 189.148C253.914 189.342 259.96 189.439 266.403 189.439C273.049 189.439 279.893 189.342 286.935 189.147C294.007 188.755 300.981 188.362 307.857 187.969C315.508 187.338 321.972 184.627 327.402 179.854C332.887 175.033 337.499 167.944 341.088 158.318C341.711 156.515 342.823 154.821 344.175 153.244L344.201 153.214C345.946 151.219 348.332 149.48 351.355 149.479C353.345 149.479 355.339 150.282 356.643 152.165C357.762 153.782 358.02 155.708 358.02 157.328C358.019 158.11 357.856 159.229 357.669 160.354C357.461 161.599 357.156 163.225 356.758 165.216C356.755 165.229 356.753 165.243 356.75 165.256C355.951 169.051 354.956 173.431 353.766 178.39C352.568 183.379 351.266 188.086 349.861 192.508C348.685 196.815 347.641 200.102 346.723 202.168C346.698 202.223 346.673 202.279 346.646 202.333C345.978 203.668 345.207 204.987 344.339 206.291C342.755 208.801 340.096 209.576 337.739 209.576C329.237 209.576 321.027 209.476 313.109 209.278C305.217 209.278 297.518 209.18 290.014 208.982C282.713 208.982 275.509 208.885 268.402 208.688H230.658C224.717 208.885 218.872 208.983 213.124 208.983H190.332C188.585 208.983 187.186 208.151 186.259 207.069C185.433 206.106 184.984 204.969 184.71 204.011C184.66 203.836 184.621 203.658 184.596 203.478C184.57 203.297 184.481 202.668 184.467 202.571C184.475 202.627 184.465 202.56 184.46 202.522C184.483 202.682 184.433 202.34 184.456 202.499C184.448 202.44 184.438 202.368 184.453 202.476L184.45 202.458C184.441 202.398 184.433 202.338 184.449 202.453C184.449 202.451 184.449 202.449 184.448 202.447C184.448 202.445 184.449 202.443 184.448 202.441C184.443 202.405 184.437 202.362 184.446 202.43C184.444 202.411 184.441 202.396 184.439 202.385C184.439 202.383 184.44 202.381 184.439 202.379C184.439 202.377 184.439 202.376 184.438 202.374L184.437 202.362C184.436 202.359 184.436 202.355 184.436 202.352C184.435 202.35 184.435 202.348 184.435 202.346C184.434 202.344 184.434 202.342 184.434 202.341C184.433 202.339 184.433 202.337 184.433 202.335C184.432 202.333 184.432 202.332 184.432 202.33C184.458 202.512 184.431 202.324 184.422 202.261C184.422 202.259 184.421 202.257 184.421 202.256C184.421 202.254 184.421 202.253 184.421 202.251C184.421 202.249 184.42 202.247 184.42 202.245L184.418 202.235C184.418 202.234 184.418 202.232 184.418 202.23C184.418 202.229 184.417 202.226 184.417 202.225L184.415 202.215C184.415 202.213 184.415 202.212 184.415 202.21C184.415 202.208 184.414 202.207 184.414 202.205C184.414 202.203 184.413 202.201 184.413 202.199C184.413 202.198 184.413 202.196 184.413 202.194L184.41 202.18C184.41 202.178 184.41 202.176 184.41 202.175L184.407 202.16C184.407 202.159 184.407 202.157 184.407 202.155C184.407 202.152 184.405 202.139 184.404 202.136C184.404 202.134 184.404 202.132 184.403 202.131C184.403 202.129 184.404 202.127 184.403 202.126C184.403 202.124 184.403 202.123 184.402 202.121C184.402 202.12 184.402 202.119 184.401 202.117C184.401 202.116 184.401 202.114 184.4 202.112C184.4 202.111 184.401 202.109 184.4 202.107L184.398 202.098C184.435 202.354 184.361 201.832 184.397 202.089C184.397 202.086 184.397 202.082 184.396 202.079C184.411 202.184 184.402 202.117 184.394 202.061C184.393 202.058 184.393 202.055 184.393 202.052C184.392 202.05 184.392 202.049 184.392 202.048C184.391 202.046 184.391 202.044 184.391 202.043C184.41 202.18 184.369 201.888 184.389 202.025C184.38 201.965 184.37 201.896 184.386 202.008C184.386 202.006 184.386 202.004 184.386 202.003C184.386 202.002 184.385 202 184.385 201.999C184.385 201.998 184.384 201.996 184.384 201.994C184.384 201.993 184.384 201.992 184.384 201.99C184.39 202.035 184.372 201.911 184.379 201.956L184.377 201.948C184.376 201.94 184.377 201.948 184.376 201.939C184.376 201.938 184.376 201.937 184.376 201.936C184.376 201.934 184.375 201.933 184.375 201.932C184.374 201.924 184.372 201.91 184.374 201.924C184.349 201.751 184.331 201.621 184.318 201.535L184.316 201.52C184.316 201.518 184.316 201.517 184.315 201.516V201.512L184.314 201.51V201.505C184.31 201.473 184.317 201.522 184.312 201.491C184.312 201.49 184.312 201.489 184.312 201.487C184.3 201.407 184.306 201.445 184.312 201.484L184.309 201.467V201.464C184.308 201.457 184.309 201.468 184.308 201.461C184.307 201.459 184.307 201.458 184.307 201.456C184.307 201.459 184.308 201.46 184.307 201.451C184.309 201.466 184.304 201.434 184.306 201.448V201.446C184.304 201.435 184.306 201.448 184.305 201.438L184.303 201.424C184.321 201.553 184.31 201.481 184.301 201.413V201.408L184.3 201.405C184.286 201.312 184.276 201.217 184.27 201.123L184.26 200.84C184.26 199.454 184.797 198.025 185.249 196.97C185.773 195.748 186.516 194.301 187.438 192.663L187.476 192.596C189.513 189.132 191.941 185.392 194.751 181.378C197.522 177.419 200.004 173.943 202.194 170.956C212.264 157.135 221.545 144.497 230.038 133.041C238.509 121.419 246.684 110.19 254.564 99.3545C262.447 88.3186 270.43 76.9864 278.511 65.3574L278.519 65.3457C286.491 53.9558 295.016 41.4606 304.096 27.8613C303.977 27.8491 303.855 27.836 303.729 27.8242C298.488 27.6322 291.97 27.5361 284.164 27.5361C284.13 27.5361 284.096 27.535 284.062 27.5342C276.401 27.3377 268.639 27.2393 260.779 27.2393H244.204C238.964 27.2393 234.573 27.4342 231.007 27.8096C230.978 27.8126 230.949 27.816 230.92 27.8184C227.007 28.1444 222.277 29.8128 216.662 33.1816C216.634 33.1986 216.605 33.2152 216.576 33.2314C211.587 36.0587 207.805 40.5878 205.321 47.1514C205.295 47.2218 205.266 47.2915 205.235 47.3604C204.372 49.3023 203.217 51.4966 201.799 53.9297C200.029 57.1324 197.132 59.2079 193.292 59.208C191.373 59.208 189.683 58.4399 188.392 57.1484C188.088 56.8444 187.834 56.4929 187.642 56.1084C187.003 54.8301 186.628 53.4323 186.628 51.9521C186.628 50.3273 186.898 48.6703 187.374 47.0049L187.475 46.6992C188.055 45.152 188.531 43.8185 188.905 42.6943L188.94 42.5928C189.67 40.5875 190.522 37.7603 191.495 34.0615C191.507 34.0177 191.519 33.9741 191.532 33.9307C192.683 30.0943 193.743 25.9522 194.711 21.502C194.72 21.4618 194.729 21.4217 194.739 21.3818C195.87 16.858 196.513 12.6813 196.696 8.8418L196.708 8.66992C196.924 6.29307 197.656 3.11054 200.41 1.45801L200.925 1.16406C202.155 0.499916 203.581 0 205.132 0L205.549 0.0146484Z" fill="black" style="fill:black;fill-opacity:1;"/>
<path d="M180.516 204.096C180.518 204.1 180.52 204.104 180.522 204.107C180.525 204.113 180.528 204.124 180.532 204.139C180.537 204.153 180.542 204.169 180.546 204.186C180.55 204.202 180.553 204.217 180.556 204.229C180.558 204.243 180.56 204.251 180.56 204.254C180.56 204.262 180.557 204.267 180.551 204.267C180.546 204.267 180.542 204.264 180.537 204.259C180.533 204.254 180.53 204.25 180.528 204.246C180.503 204.178 180.462 204.141 180.404 204.137C180.381 204.135 180.358 204.134 180.334 204.133C180.31 204.132 180.286 204.132 180.264 204.132C180.242 204.132 180.221 204.132 180.202 204.133C180.183 204.134 180.165 204.135 180.15 204.137C180.147 204.137 180.145 204.139 180.143 204.143C180.141 204.146 180.14 204.149 180.14 204.153C180.14 204.159 180.141 204.163 180.143 204.166C180.174 204.214 180.203 204.257 180.229 204.296C180.255 204.335 180.281 204.372 180.307 204.407C180.332 204.443 180.359 204.481 180.387 204.519C180.415 204.556 180.446 204.599 180.48 204.646L180.542 204.727C180.544 204.729 180.543 204.733 180.54 204.737C180.537 204.742 180.534 204.745 180.53 204.745C180.512 204.744 180.493 204.744 180.475 204.743C180.456 204.743 180.437 204.743 180.418 204.742H180.174C180.157 204.742 180.14 204.744 180.123 204.748C180.107 204.752 180.095 204.755 180.088 204.758C180.083 204.76 180.076 204.763 180.069 204.767C180.063 204.77 180.059 204.771 180.057 204.771C180.054 204.771 180.051 204.771 180.048 204.769C180.045 204.767 180.043 204.762 180.042 204.755C180.041 204.741 180.039 204.726 180.035 204.71C180.032 204.695 180.027 204.68 180.023 204.667C180.02 204.654 180.017 204.644 180.015 204.637C180.013 204.633 180.012 204.628 180.01 204.623C180.008 204.618 180.008 204.613 180.008 204.609C180.008 204.607 180.008 204.604 180.01 204.602C180.012 204.6 180.014 204.599 180.017 204.599C180.024 204.599 180.029 204.602 180.033 204.609L180.062 204.663C180.07 204.672 180.079 204.679 180.089 204.685C180.109 204.697 180.127 204.704 180.143 204.705C180.155 204.706 180.171 204.707 180.188 204.707H180.245C180.271 204.707 180.298 204.707 180.323 204.706C180.35 204.706 180.373 204.706 180.391 204.705C180.398 204.704 180.403 204.703 180.405 204.702C180.408 204.701 180.41 204.698 180.41 204.696C180.41 204.695 180.409 204.694 180.408 204.692C180.408 204.691 180.406 204.69 180.405 204.688C180.373 204.641 180.343 204.597 180.315 204.557C180.288 204.517 180.261 204.479 180.234 204.441C180.208 204.405 180.18 204.367 180.151 204.328C180.123 204.289 180.092 204.246 180.058 204.199C180.05 204.189 180.041 204.178 180.032 204.165C180.023 204.152 180.015 204.139 180.009 204.128C180.003 204.117 180 204.11 180 204.106L180.001 204.1C180.002 204.095 180.004 204.093 180.007 204.093H180.084C180.103 204.093 180.123 204.093 180.143 204.094H180.271C180.295 204.093 180.319 204.093 180.344 204.093C180.369 204.092 180.395 204.092 180.422 204.092C180.448 204.091 180.476 204.091 180.505 204.091C180.51 204.091 180.514 204.092 180.516 204.096Z" fill="black" style="fill:black;fill-opacity:1;"/>
<path d="M24.4911 6.64362C36.7273 2.24188 47.7919 7.19221 56.8856 15.4288C65.6082 23.3293 72.5983 34.3187 77.2226 43.2491C77.5331 41.055 77.5555 38.2484 77.5556 35.1671C77.5556 31.4082 77.5254 27.2757 77.9901 23.5264C78.4536 19.7879 79.418 16.3347 81.4804 13.9903C83.3912 11.8184 86.1811 10.6669 90.162 11.0098C89.0772 12.2518 88.1445 13.6297 87.3925 15.0977C81.251 27.9341 86.5953 42.5692 81.6718 54.9727C80.8796 56.8265 79.7913 58.6405 78.6376 60.4014C77.3779 57.2232 76.1952 53.9528 74.5653 50.8341C69.8777 41.8649 64.6814 33.0024 57.6962 25.4581C51.7761 19.0462 43.8981 13.7206 35.0136 12.7198C32.954 12.4729 30.8765 12.448 28.8192 12.6212C28.4597 11.3765 27.7513 10.2514 26.8417 9.3946C26.6968 9.25707 26.5463 9.12543 26.3925 9.00007C26.4962 9.16927 26.596 9.34044 26.6913 9.51179C27.3396 10.6738 27.7727 11.8861 27.9716 13.1221C28.0376 13.5277 28.0806 13.9371 28.1015 14.3477C28.1854 16.0109 27.9196 17.7103 27.4931 19.4298C27.4455 19.621 27.3963 19.8128 27.3446 20.005C27.4568 19.8406 27.5641 19.6732 27.6679 19.503C28.5992 17.9805 29.1946 16.1647 29.0995 14.2969C29.0843 13.9963 29.0484 13.6957 28.997 13.3985C30.9649 13.3909 32.9198 13.5571 34.8349 13.9073C43.2687 15.4015 50.4684 20.6061 56.2333 26.8223C63.0065 34.1324 68.1818 42.8435 72.9013 51.7071C74.7422 55.1568 76.0521 58.9114 77.6317 62.6231L78.2694 64.126L79.1757 62.7784C80.6786 60.4989 82.1342 58.2153 83.2196 55.5919C88.177 42.2241 82.5395 27.9155 88.2079 15.505C88.9748 13.9159 89.957 12.4307 91.1269 11.1016C94.7587 7.58108 100.299 4.50879 106.013 5.28425C124.486 7.79169 136.535 9.56104 168.646 5.78327C169.272 5.70969 169.812 5.89919 170.205 6.34382C170.572 6.75963 170.771 7.35217 170.866 8.01472C171.058 9.34465 170.873 11.2207 170.435 13.379C167.723 26.7514 162.054 37.3583 153.629 44.7491C145.274 52.0786 134.247 56.2076 120.81 56.7735C119.107 61.8524 115.643 68.0117 111.695 73.9971C107.78 79.9333 103.367 85.73 99.6757 90.1895C104.07 93.2472 108.924 95.2752 113.758 97.5753C118.729 99.9407 123.642 102.585 127.799 106.926C127.833 106.96 127.907 107.007 128.092 107.017C128.281 107.027 128.539 106.993 128.876 106.909C129.551 106.741 130.405 106.406 131.42 106.013C133.408 105.243 135.944 104.279 138.445 104.279C143.339 104.279 148.301 106.07 151.34 109.972C159.047 119.874 157.577 132.212 155.794 144.506C153.997 156.893 151.886 169.242 157.848 179.633C158.639 181.011 159.639 182.44 160.855 183.666C161.418 184.234 161.495 185.168 160.936 185.796L160.397 186.402C160.037 186.807 159.481 186.995 158.94 186.862C148.453 184.293 138.483 176.271 138.483 164.513C138.483 161.603 139.243 156.947 140.107 151.702C140.975 146.431 141.956 140.523 142.421 135.04C142.887 129.541 142.827 124.546 141.661 121.072C141.081 119.344 140.241 118.036 139.1 117.217C137.967 116.404 136.479 116.029 134.51 116.274L134.511 116.275C134.041 116.337 132.997 116.549 132.171 116.92C132.86 120.793 133.015 125.75 132.035 131.84L132.033 131.852L132.031 131.862C131.061 136.523 128.901 141.445 125.105 145.207C121.391 148.888 116.135 151.429 108.979 151.55C109.154 154.155 109.651 157.997 110.624 161.649C111.144 163.6 111.795 165.485 112.598 167.093C113.402 168.706 114.343 170.008 115.423 170.831C116.436 171.603 116.679 172.696 116.557 173.651C116.438 174.578 115.969 175.452 115.442 175.897C107.901 182.255 101.973 188.715 97.9306 193.585C95.91 196.019 94.3608 198.056 93.3183 199.482C92.7972 200.195 92.4024 200.756 92.1386 201.138C92.0069 201.328 91.9077 201.474 91.8417 201.572C91.8089 201.621 91.7838 201.658 91.7675 201.683C91.7595 201.695 91.7529 201.704 91.7489 201.71C91.7474 201.712 91.745 201.717 91.745 201.717L91.744 201.718L91.7157 201.761L91.6796 201.797C91.1417 202.335 90.4035 202.368 89.9071 202.44C89.3695 202.517 88.8617 202.637 88.3534 203.145L88.3524 203.144C87.8773 203.619 87.629 203.992 87.5419 204.3C87.4662 204.568 87.4994 204.834 87.7343 205.167C88.1462 205.752 88.4553 206.716 88.2655 207.549C88.1656 207.986 87.9217 208.403 87.4735 208.675C87.0352 208.94 86.4623 209.03 85.7694 208.951C84.5521 208.812 81.5797 208.734 78.5126 208.731C75.4482 208.727 72.3483 208.799 70.8778 208.952C70.4381 208.998 69.9329 208.917 69.6923 208.451C69.588 208.249 69.5695 208.03 69.5849 207.838C69.6005 207.644 69.6524 207.442 69.7226 207.244C69.9971 206.471 70.6609 205.457 71.4091 204.469C72.1683 203.466 73.0538 202.44 73.8163 201.63C74.1974 201.225 74.5521 200.87 74.8476 200.597C75.1251 200.34 75.3971 200.112 75.5995 200.009C76.3179 199.645 77.0696 199.324 77.7255 199.011C78.4019 198.688 79.0396 198.345 79.6454 197.891C80.162 197.503 80.5033 196.801 80.8808 195.878C81.2366 195.008 81.6204 193.954 82.2597 193.136C82.4353 192.911 82.842 192.511 83.3778 192.011C83.9269 191.498 84.6464 190.847 85.4774 190.108C87.1401 188.63 89.2604 186.786 91.3857 184.947C95.6537 181.254 99.907 177.61 100.592 176.926C101.225 176.293 101.847 175.206 102.169 174.173C102.329 173.659 102.405 173.191 102.387 172.824C102.368 172.452 102.26 172.265 102.145 172.18C94.9071 166.751 86.2675 159.792 80.9062 151.674C80.6626 151.174 80.4647 150.634 80.3134 150.069C79.122 145.004 80.4963 138.688 83.8837 134.482C85.1829 133.048 86.531 131.64 87.8642 130.21C91.1679 126.713 94.8217 123.418 97.8466 119.595C98.2698 119.026 98.6928 118.448 98.9452 117.791C98.6473 118.426 98.1892 118.966 97.7304 119.5C94.4595 123.078 90.6282 126.067 87.0263 129.372C85.7228 130.585 84.4 131.788 83.0956 133.025C81.0322 132.166 78.9533 131.356 76.8612 130.599C76.741 130.555 76.6199 130.512 76.4999 130.469C76.6092 130.534 76.7187 130.601 76.828 130.667C78.6302 131.755 80.4038 132.884 82.1483 134.046C78.3364 138.635 76.6477 144.567 77.5331 150.695C77.6785 151.452 77.8912 152.21 78.1952 152.952C78.4567 154.575 78.803 156.296 79.2509 157.978C79.7707 159.929 80.4224 161.814 81.2245 163.422C82.029 165.035 82.9688 166.336 84.0487 167.159C85.0624 167.932 85.305 169.025 85.1825 169.981C85.0636 170.907 84.5949 171.781 84.0683 172.226C76.5312 178.581 70.6353 185.246 66.6239 190.322C64.6189 192.86 63.0857 195 62.0546 196.504C61.5392 197.256 61.1491 197.849 60.8886 198.253C60.7585 198.455 60.6607 198.61 60.5956 198.714C60.5633 198.766 60.5384 198.805 60.5224 198.831C60.5147 198.843 60.5087 198.853 60.5048 198.859C60.5032 198.862 60.4999 198.866 60.4999 198.866L60.4989 198.868L60.4677 198.92L60.4257 198.962C60.1327 199.255 59.78 199.38 59.4491 199.441C59.1368 199.498 58.7784 199.507 58.4911 199.526C57.8816 199.567 57.3411 199.657 56.8534 200.145L56.8524 200.144C56.4774 200.519 56.365 200.953 56.4042 201.398C56.4451 201.859 56.653 202.334 56.9257 202.721C57.3956 203.388 57.4417 204.412 57.0458 205.194C56.8399 205.601 56.5061 205.961 56.0321 206.172C55.5585 206.383 54.9866 206.426 54.3349 206.278C53.2603 206.034 50.8157 205.907 48.0927 205.909C45.3872 205.911 42.4789 206.041 40.5077 206.287C39.9616 206.355 39.4267 206.295 39.0839 205.92C38.7411 205.545 38.7533 205.033 38.8456 204.612C39.034 203.755 39.6951 202.63 40.4569 201.548C41.2338 200.445 42.1687 199.313 42.9745 198.424C43.3775 197.979 43.7527 197.59 44.0634 197.293C44.2183 197.145 44.3608 197.016 44.4853 196.913C44.6023 196.817 44.7285 196.722 44.8456 196.662C45.6004 196.279 46.2297 196.093 46.7694 195.9C47.3078 195.708 47.8027 195.497 48.3915 195.056C48.6495 194.862 48.936 194.532 49.247 194.087C49.5539 193.648 49.8638 193.126 50.1776 192.575C50.7906 191.499 51.4363 190.27 52.0517 189.482C52.2242 189.262 52.5869 188.895 53.0595 188.441C53.5424 187.976 54.1679 187.395 54.8886 186.737C56.3307 185.421 58.1642 183.785 60.0233 182.134C63.7541 178.82 67.5663 175.462 68.5917 174.437C69.5882 173.44 70.3867 172.203 70.7108 171.097C71.0362 169.986 70.8566 169.165 70.1679 168.706C59.2456 161.426 55.0504 154.521 55.8847 147.634C56.2989 144.216 57.949 140.872 60.5116 137.564C62.9411 134.427 66.2089 131.299 70.0761 128.145C60.4768 123.946 50.9017 117.401 44.1913 109.062C48.5148 111.797 53.0424 114.332 58.1415 115.817C59.1154 116.038 59.7991 115.935 60.579 115.776C60.9613 115.686 61.3468 115.565 61.7519 115.344C62.1342 115.124 62.6649 114.768 62.8563 114.019C63.8084 110.213 65.4133 106.296 67.8417 103.127C70.3097 99.9906 74.4702 98.5422 78.5058 98.0264C79.4782 97.9008 80.4638 97.8244 81.4462 97.7911C80.4638 97.7578 79.4728 97.7673 78.4872 97.8272C74.4058 98.0818 70.0179 99.2002 67.0507 102.455C64.2366 105.678 62.367 109.47 61.036 113.564C61.0656 113.459 61.0336 113.547 60.8505 113.623C60.678 113.701 60.4336 113.768 60.1806 113.808C59.6897 113.89 59.035 113.872 58.7499 113.765C51.3538 111.069 45.0987 105.694 38.4765 100.828C38.1818 100.614 37.8843 100.402 37.5819 100.189C36.7343 99.5079 35.9722 99.015 35.2743 98.7608C34.6007 98.5155 33.7123 98.5087 32.9355 98.7413C32.1486 98.9771 31.5974 99.4167 31.4198 99.9483C31.1246 100.834 30.7217 101.77 30.2938 102.747C29.8633 103.73 29.4044 104.76 28.9813 105.86C28.1368 108.057 27.4454 110.507 27.4452 113.29C27.4452 114.309 27.349 115.283 27.2958 116.187C27.2418 117.104 27.2294 117.984 27.3769 118.899C27.6682 120.705 28.6009 122.739 31.2987 125.437C31.6302 125.768 31.6644 126.225 31.6024 126.619C31.5391 127.021 31.3622 127.469 31.1249 127.928C30.647 128.851 29.8586 129.936 28.9501 130.992C28.0385 132.052 26.9876 133.103 25.9696 133.955C24.9641 134.797 23.9462 135.484 23.1034 135.765C21.8021 136.198 20.6684 135.48 19.7245 134.347C18.7717 133.202 17.8713 131.48 16.9882 129.493C16.4416 128.263 16.2389 127.047 16.1425 125.919C16.0945 125.357 16.072 124.809 16.0487 124.297C16.0253 123.78 16.0012 123.299 15.9491 122.848C15.8365 121.873 15.5728 120.766 15.6044 119.548C15.6374 118.283 15.9756 116.855 17.0116 115.042C17.7685 113.717 18.5852 111.604 19.3788 109.126C20.1696 106.657 20.9285 103.856 21.5741 101.177C22.2197 98.4972 22.7512 95.9445 23.0897 93.9727C23.2591 92.9861 23.3791 92.1505 23.4413 91.5206C23.4724 91.2054 23.4877 90.9483 23.4892 90.754C23.4899 90.6572 23.4876 90.5809 23.4823 90.5245C23.477 90.4671 23.4708 90.446 23.4716 90.4483C23.3806 90.1749 23.4111 89.8978 23.4931 89.6485C23.6774 89.4256 24.063 89.0878 24.4511 88.836C25.3803 88.2159 26.4972 87.6888 27.622 87.252C28.1869 87.0343 28.7616 86.8388 29.331 86.6807C29.6115 86.603 29.8968 86.5335 30.1591 86.4854C30.288 86.4617 30.4171 86.4429 30.5165 86.4337C30.5651 86.4255 30.6233 86.4282 30.6435 86.4268C31.9462 86.9322 33.6526 87.8875 35.1737 88.6563C36.4889 89.3344 37.812 90.0089 39.1474 90.6622C41.1286 91.6292 43.1351 92.5612 45.2108 93.3565C49.8917 95.2649 54.4932 98.1333 57.5673 102.307C57.9647 102.915 58.3125 103.576 58.4452 104.297C58.3624 103.568 58.0562 102.872 57.6952 102.229C54.8543 97.7794 50.4388 94.5703 45.6806 92.2374C44.1019 91.5059 42.5583 90.6812 41.0312 89.8214C41.0176 89.6073 41.0017 89.6117 40.9911 89.544C40.9779 89.4875 40.9661 89.4454 40.955 89.4063C40.933 89.3297 40.9129 89.266 40.8935 89.2051C40.8551 89.0863 40.8172 88.9707 40.7938 88.9014C40.7556 88.7697 40.7179 88.6385 40.6815 88.5089C38.6488 82.2044 39.4142 74.9692 44.6669 70.1319C44.9246 69.8504 45.1855 69.5705 45.4462 69.2911C45.1512 69.5342 44.8563 69.7784 44.5634 70.0245C39.0568 73.7358 36.7893 81.227 37.6913 87.879C37.1713 87.5686 36.651 87.2576 36.1317 86.9434C34.5579 86.0228 33.2711 85.0952 31.3134 84.1934C30.8485 84.0531 30.6627 84.0829 30.4237 84.0772C30.2089 84.0805 30.0108 84.0968 29.8251 84.1173C29.4517 84.1594 29.1024 84.2213 28.7636 84.2901C28.0807 84.4305 27.4275 84.6054 26.7782 84.8057C25.4823 85.2131 24.2179 85.6931 22.954 86.4112C22.5598 86.6554 22.1539 86.8871 21.7489 87.2276C21.2001 86.7961 20.7065 86.4066 20.2685 86.0704C19.7472 85.6703 19.3153 85.3505 18.9735 85.1241C18.8027 85.0109 18.661 84.9255 18.5478 84.8663C18.4286 84.804 18.3664 84.7841 18.3476 84.7803C18.2343 84.7577 18.0817 84.7823 17.8612 84.9708C17.6338 85.1654 17.3848 85.4965 17.1239 85.9678C16.6041 86.9074 16.1098 88.2708 15.6493 89.8048C15.191 91.3316 14.7748 92.9974 14.4032 94.5284C14.0337 96.0508 13.705 97.4536 13.4267 98.4278C13.1577 99.3693 12.6708 100.21 12.2509 100.966C11.8184 101.745 11.4557 102.435 11.3202 103.16C11.1902 103.857 11.2669 104.615 11.788 105.527C12.3197 106.458 13.3195 107.558 15.0575 108.895C15.4326 109.183 15.5151 109.621 15.4784 110.014C15.4421 110.401 15.287 110.83 15.0741 111.263C14.6443 112.136 13.9049 113.167 13.0419 114.173C12.1752 115.183 11.164 116.189 10.1747 117.009C9.19661 117.82 8.19768 118.485 7.35733 118.765C6.85889 118.931 6.39266 119.065 5.95889 119.081C5.49513 119.098 5.07355 118.979 4.67764 118.671C4.3042 118.38 3.97572 117.937 3.63955 117.353C3.30039 116.763 2.92975 115.987 2.48819 114.993C1.42656 112.604 1.16826 110.745 0.949124 108.848C0.896195 108.39 0.761683 108.021 0.602444 107.652C0.450181 107.3 0.243979 106.887 0.121976 106.443C-0.145253 105.471 -0.0257989 104.358 1.01162 102.542C2.55693 99.8375 4.9196 94.124 6.83877 88.751C7.79648 86.0698 8.63911 83.4868 9.20987 81.4239C9.49538 80.3919 9.71034 79.4969 9.83877 78.7891C9.97192 78.0552 9.99642 77.5961 9.95498 77.3887C9.79012 76.5637 10.1315 75.7614 10.6396 75.0841C11.1532 74.3994 11.889 73.7684 12.6679 73.2491C13.4493 72.7282 14.3 72.3024 15.0624 72.0372C15.4435 71.9046 15.8139 71.8085 16.1493 71.7637C16.4759 71.7202 16.8126 71.7196 17.1034 71.8165C17.2648 71.8703 17.6031 72.0376 18.0263 72.2579C18.47 72.4889 19.0568 72.8047 19.7489 73.1817C21.1339 73.9362 22.9483 74.9433 24.8964 76.0294C28.4778 78.026 32.5119 80.2892 35.1796 81.7589C35.4178 79.1812 35.9484 76.539 36.8065 73.8409C37.7324 70.7095 38.4753 65.5876 38.3241 60.6339C38.2485 58.1568 37.9504 55.7392 37.3485 53.6446C36.7453 51.5455 35.8484 49.8075 34.6044 48.6446C34.0554 48.1315 33.5293 47.7487 33.0282 47.4708C35.7294 44.9234 38.1827 41.8315 38.8388 37.9962C39.637 33.3429 37.3246 29.1028 34.5927 25.8536C34.2941 25.4984 33.9785 25.1392 33.6464 24.7764C33.9399 25.171 34.2154 25.5601 34.4726 25.9434C36.8678 29.4522 38.5131 33.7667 37.3739 37.6758C36.2757 41.5767 33.0098 44.3935 29.6034 46.7227C29.2173 46.9867 28.8273 47.2453 28.4384 47.4991C28.4399 47.5011 28.4418 47.5029 28.4433 47.505C27.1125 48.2441 26.0212 49.447 25.1942 50.3292C24.3737 51.2046 23.9375 52.6379 23.5946 54.1387C23.4309 54.8556 23.2805 55.6212 23.1249 56.2501C22.9692 56.879 22.7832 57.4845 22.5038 57.9132C20.8407 60.4636 18.4393 61.4148 16.0517 61.3409C13.5859 61.2645 11.134 59.8239 9.50381 58.0294C8.68458 57.1275 8.04941 56.1112 7.72256 55.0928C7.39561 54.074 7.36831 53.018 7.8251 52.088C8.94746 49.8029 10.1702 45.6719 11.0097 41.4805C11.8516 37.2764 12.2848 33.1231 11.8905 30.7725C11.4534 28.166 12.2156 26.4008 13.0878 25.044C13.3025 24.7101 13.524 24.4005 13.7304 24.1153C13.9393 23.8265 14.1293 23.5673 14.2958 23.3165C14.6331 22.8081 14.8209 22.4085 14.8437 22.0294C15.0677 18.2777 16.064 16.2377 16.9901 14.7921C16.4795 13.7209 16.3543 12.8583 16.4228 11.755C16.4585 11.1785 16.5465 10.532 16.6513 9.76667C16.7568 8.99574 16.8822 8.08733 16.998 6.96491L17.0702 6.26081L17.7099 6.56452C18.4183 6.90099 18.978 7.05333 19.5546 7.2696C19.9917 7.43359 20.4119 7.63038 20.786 7.96687C20.8401 7.93663 20.8946 7.90581 20.9501 7.87702C21.2418 7.72579 21.5413 7.58676 21.8466 7.46003C21.9177 6.97334 21.996 6.4688 22.0829 5.94734L22.1991 5.24909L22.8192 5.59284C23.4236 5.92835 23.9796 6.28016 24.4911 6.64362Z" fill="black" style="fill:black;fill-opacity:1;"/>
</svg>
